<?xml version="1.0" encoding="UTF-8"?>
<svg version="1.1" xmlns="http://www.w3.org/2000/svg" width="500" height="500">
<path d="M0 0 C2.09123944 -0.00961489 4.18145501 -0.04065854 6.27246094 -0.07226562 C23.4049762 -0.20699913 38.46519898 3.56863524 53.12402344 12.67773438 C53.7119165 13.03689941 54.29980957 13.39606445 54.90551758 13.76611328 C59.63484428 16.83596707 62.96890479 20.26801821 64.20605469 25.88085938 C64.28210938 26.74195313 64.35816406 27.60304687 64.43652344 28.49023438 C65.28069612 33.95900524 67.30972361 37.03677142 70.61621094 41.38085938 C79.55286413 54.10776626 84.58242178 68.70673071 84.72949219 84.25195312 C84.75172852 85.88293945 84.75172852 85.88293945 84.77441406 87.546875 C84.79928084 89.81236952 84.80428803 92.07816382 84.79003906 94.34375 C84.85044345 97.42071264 84.95785071 100.23469082 85.62402344 103.24023438 C88.3809724 105.95230485 88.3809724 105.95230485 91.62402344 107.24023438 C93.81104706 110.22916666 94.62402344 111.51967891 94.62402344 115.24023438 C95.55214844 115.44648438 96.48027344 115.65273437 97.43652344 115.86523438 C100.62402344 117.24023438 100.62402344 117.24023438 102.49902344 119.99023438 C103.70558729 123.47586329 104.15601679 125.59227995 103.62402344 129.24023438 C100.64471309 134.7732393 100.64471309 134.7732393 97.60058594 136.16601562 C95.12170812 137.51323183 94.76142194 138.58888677 93.74902344 141.17773438 C92.30902033 144.27065933 91.73310397 145.16509001 88.81152344 147.17773438 C85.62402344 148.24023438 85.62402344 148.24023438 81.93652344 148.61523438 C78.46024582 148.87657509 78.46024582 148.87657509 76.87402344 151.67773438 C76.46152344 152.52335938 76.04902344 153.36898437 75.62402344 154.24023438 C71.90955513 156.71654658 68.92844157 156.77828664 64.62402344 156.24023438 C61.48776474 154.94482317 60.091541 154.03501423 58.37402344 151.11523438 C57.70402852 148.54692052 57.3531461 146.19204181 57.07714844 143.56054688 C56.99110352 142.75117676 56.90505859 141.94180664 56.81640625 141.10791016 C56.75291992 140.49157715 56.68943359 139.87524414 56.62402344 139.24023438 C55.60338303 139.24245499 54.58274261 139.2446756 53.53117371 139.2469635 C43.92246747 139.26721672 34.31376556 139.28221706 24.70504284 139.29204655 C19.76486002 139.29726981 14.8246944 139.30435742 9.88452148 139.31567383 C5.11887251 139.3265224 0.3532401 139.33251541 -4.41242027 139.33511162 C-6.23252308 139.3369623 -8.05262495 139.34057611 -9.87272072 139.34596443 C-12.41785278 139.35320096 -14.96291598 139.3542242 -17.50805664 139.35375977 C-18.64201874 139.35915268 -18.64201874 139.35915268 -19.79888916 139.36465454 C-27.26634601 139.34986492 -27.26634601 139.34986492 -30.37597656 136.24023438 C-31.59291533 138.6741119 -31.69557553 140.65862283 -31.93847656 143.36523438 C-32.06416016 144.73035156 -32.06416016 144.73035156 -32.19238281 146.12304688 C-32.25296875 146.82171875 -32.31355469 147.52039063 -32.37597656 148.24023438 C-33.36597656 148.57023438 -34.35597656 148.90023437 -35.37597656 149.24023438 C-35.50875 148.56476563 -35.64152344 147.88929688 -35.77832031 147.19335938 C-35.95492187 146.30132812 -36.13152344 145.40929687 -36.31347656 144.49023438 C-36.4875 143.60851562 -36.66152344 142.72679687 -36.84082031 141.81835938 C-37.29966145 139.60788384 -37.8093373 137.42511369 -38.37597656 135.24023438 C-39.03597656 137.22023437 -39.69597656 139.20023438 -40.37597656 141.24023438 C-42.32814091 139.28807003 -43.22424301 137.70823484 -44.37597656 135.24023438 C-46.68597656 135.57023438 -48.99597656 135.90023437 -51.37597656 136.24023438 C-51.41464844 137.66916016 -51.41464844 137.66916016 -51.45410156 139.12695312 C-51.51082031 140.38121094 -51.56753906 141.63546875 -51.62597656 142.92773438 C-51.67238281 144.16910156 -51.71878906 145.41046875 -51.76660156 146.68945312 C-52.4533546 150.69111027 -53.55377968 152.38090333 -56.37597656 155.24023438 C-59.58260544 156.84354881 -62.8970101 156.72675651 -66.37597656 156.24023438 C-69.4156329 154.42937528 -70.98019887 153.33623414 -72.18847656 149.99023438 C-72.25035156 149.41273438 -72.31222656 148.83523437 -72.37597656 148.24023438 C-73.40722656 148.30210937 -74.43847656 148.36398438 -75.50097656 148.42773438 C-80.49702622 148.18599004 -83.74361809 146.9851693 -87.18847656 143.30273438 C-88.37597656 141.24023438 -88.37597656 141.24023438 -88.75097656 139.17773438 C-89.68933734 136.26881598 -91.78806738 135.71903962 -94.37597656 134.24023438 C-97.22026758 131.59210136 -97.37350126 130.26622506 -97.75097656 126.30273438 C-97.5902842 122.54393051 -96.82416502 120.19494458 -94.37597656 117.24023438 C-93.55097656 116.76585937 -92.72597656 116.29148437 -91.87597656 115.80273438 C-88.65655057 113.79059313 -88.02572831 111.60847752 -86.37597656 108.24023438 C-82.06018709 104.24023438 -82.06018709 104.24023438 -79.37597656 104.24023438 C-79.39168701 103.65757812 -79.40739746 103.07492188 -79.42358398 102.47460938 C-79.98853003 78.21768536 -76.19970539 57.66518202 -62.37597656 37.24023438 C-61.80363281 36.73234375 -61.23128906 36.22445312 -60.64160156 35.70117188 C-58.65084597 33.40320091 -58.93937375 31.02871223 -58.75097656 28.05273438 C-58.06138161 22.96555853 -57.20882252 20.27246861 -53.37597656 16.80273438 C-51.74161388 15.57115302 -50.07426597 14.38205183 -48.37597656 13.24023438 C-47.65539062 12.71042969 -46.93480469 12.180625 -46.19238281 11.63476562 C-32.47585254 2.38739946 -16.14007618 0.04464751 0 0 Z M-31.37597656 41.24023438 C-35.48017679 43.58883565 -38.71929747 45.34506006 -43.50097656 45.49023438 C-47.64897287 46.29307237 -48.11943556 46.54611151 -50.56347656 49.67773438 C-51.53797289 51.17513118 -52.47497669 52.69749671 -53.37597656 54.24023438 C-53.818125 54.96339844 -54.26027344 55.6865625 -54.71582031 56.43164062 C-61.4814254 68.58505281 -63.08213637 81.58781142 -62.37597656 95.24023438 C-61.26222656 95.67335937 -60.14847656 96.10648438 -59.00097656 96.55273438 C-55.37597656 98.24023438 -55.37597656 98.24023438 -53.37597656 101.24023438 C-51.84098632 108.25515772 -52.34196862 115.6252678 -52.59082031 122.75 C-52.61208984 123.96526367 -52.61208984 123.96526367 -52.63378906 125.20507812 C-52.65586426 125.93331787 -52.67793945 126.66155762 -52.70068359 127.41186523 C-52.59353027 128.01522705 -52.48637695 128.61858887 -52.37597656 129.24023438 C-48.33404678 131.93485423 -46.17082696 131.47224327 -41.37597656 131.24023438 C-39.81011648 129.67437429 -39.76502963 127.81508557 -39.31347656 125.67773438 C-39.136875 124.85144531 -38.96027344 124.02515625 -38.77832031 123.17382812 C-38.57916016 122.21669922 -38.57916016 122.21669922 -38.37597656 121.24023438 C-38.04597656 121.24023438 -37.71597656 121.24023438 -37.37597656 121.24023438 C-36.71597656 124.54023438 -36.05597656 127.84023437 -35.37597656 131.24023438 C-35.04597656 131.24023438 -34.71597656 131.24023438 -34.37597656 131.24023438 C-34.23160156 130.10585937 -34.08722656 128.97148437 -33.93847656 127.80273438 C-33.37597656 124.24023438 -33.37597656 124.24023438 -32.37597656 123.24023438 C-32.00511476 121.24685217 -31.67859946 119.24511105 -31.37597656 117.24023438 C-30.48708767 111.35134549 -30.48708767 111.35134549 -29.37597656 110.24023438 C-29.29033447 110.92649902 -29.20469238 111.61276367 -29.11645508 112.31982422 C-28.72757548 115.41878233 -28.33309735 118.51700235 -27.93847656 121.61523438 C-27.80376953 122.69546875 -27.6690625 123.77570313 -27.53027344 124.88867188 C-27.39814453 125.91992188 -27.26601562 126.95117188 -27.12988281 128.01367188 C-26.94921265 129.44332275 -26.94921265 129.44332275 -26.76489258 130.90185547 C-26.49151982 133.25448909 -26.49151982 133.25448909 -25.37597656 135.24023438 C-6.84653005 136.16987005 11.63645466 136.36433934 30.18652344 136.30273438 C32.86686049 136.29711317 35.54719918 136.29307166 38.22753906 136.2890625 C44.69305474 136.27821822 51.15853448 136.2616277 57.62402344 136.24023438 C57.63860596 135.26675049 57.65318848 134.2932666 57.66821289 133.2902832 C57.72635639 129.66507961 57.80358721 126.04048678 57.88647461 122.41577148 C57.91964875 120.84946637 57.94770402 119.28304386 57.97045898 117.71655273 C58.0041446 115.45961675 58.05646393 113.20374911 58.11230469 110.94726562 C58.11869461 110.25123734 58.12508453 109.55520905 58.13166809 108.83808899 C58.26199646 104.49050558 59.00334382 101.72476764 61.62402344 98.24023438 C63.8534145 96.5741584 66.1269385 95.51233425 68.62402344 94.24023438 C69.74261876 77.00558047 64.71550003 59.56676922 53.62402344 46.24023438 C51.27322264 45.06483397 49.80375266 45.17386031 47.18652344 45.11523438 C41.55581156 44.62315211 38.23953428 42.25784603 33.67260742 39.10717773 C24.18397944 33.29637144 13.86356998 32.62547072 2.99902344 32.80273438 C1.76667969 32.79564453 0.53433594 32.78855469 -0.73535156 32.78125 C-12.43160427 32.86195663 -21.40234239 35.25973418 -31.37597656 41.24023438 Z M-56.37597656 39.24023438 C-68.82986408 55.5629331 -73.61122456 72.48885385 -73.43847656 92.74023438 C-73.43396484 93.7534375 -73.42945313 94.76664063 -73.42480469 95.81054688 C-73.41312249 98.28717264 -73.39674238 100.76367094 -73.37597656 103.24023438 C-72.26761234 101.35707279 -72.26761234 101.35707279 -71.37597656 99.24023438 C-71.70597656 98.58023438 -72.03597656 97.92023438 -72.37597656 97.24023438 C-71.38597656 97.57023437 -70.39597656 97.90023437 -69.37597656 98.24023438 C-67.79012661 96.65438443 -68.15703399 94.94485393 -68.05175781 92.74414062 C-67.03035258 75.47324083 -64.08260211 60.8001727 -54.37597656 46.24023438 C-53.68924177 44.91712533 -53.01594613 43.58658544 -52.37597656 42.24023438 C-53.69597656 41.25023437 -55.01597656 40.26023438 -56.37597656 39.24023438 Z M60.62402344 39.24023438 C59.96402344 39.90023437 59.30402344 40.56023437 58.62402344 41.24023438 C58.88833734 44.57058949 60.63833233 47.10571395 62.35375977 49.90551758 C70.01975232 62.45285466 72.16976305 74.31502908 73.49829102 88.83520508 C73.65527466 90.41821411 73.65527466 90.41821411 73.81542969 92.03320312 C73.94220093 93.46442505 73.94220093 93.46442505 74.0715332 94.92456055 C74.43334263 97.60466025 74.43334263 97.60466025 77.62402344 99.24023438 C80.49450148 94.93451731 79.95771649 91.24239269 79.12402344 86.24023438 C78.62402344 83.24023438 78.62402344 83.24023438 78.68652344 79.98632812 C78.44811728 65.69685931 71.01369983 50.583776 62.62402344 39.24023438 C61.96402344 39.24023438 61.30402344 39.24023438 60.62402344 39.24023438 Z M78.62402344 98.24023438 C78.62402344 99.89023438 78.62402344 101.54023438 78.62402344 103.24023438 C78.95402344 103.24023438 79.28402344 103.24023438 79.62402344 103.24023438 C79.62402344 101.59023437 79.62402344 99.94023437 79.62402344 98.24023438 C79.29402344 98.24023438 78.96402344 98.24023438 78.62402344 98.24023438 Z M-82.37597656 111.24023438 C-83.8441018 116.28412629 -83.59730719 121.52957508 -83.62597656 126.74023438 C-83.64660156 127.67738281 -83.66722656 128.61453125 -83.68847656 129.58007812 C-83.71075871 133.50730648 -83.57405895 136.660341 -82.29785156 140.39648438 C-79.97796317 143.04790317 -79.97796317 143.04790317 -73.37597656 142.24023438 C-73.37597656 131.35023438 -73.37597656 120.46023437 -73.37597656 109.24023438 C-79.14485148 108.68553418 -79.14485148 108.68553418 -82.37597656 111.24023438 Z M78.62402344 110.24023438 C78.53562673 112.61591957 78.50872039 114.96232111 78.52636719 117.33789062 C78.52778214 118.04674911 78.52919708 118.7556076 78.53065491 119.48594666 C78.53626901 121.7582515 78.54882381 124.03045913 78.56152344 126.30273438 C78.56653662 127.83984233 78.57109985 129.37695183 78.57519531 130.9140625 C78.58624301 134.68949079 78.60351702 138.46484608 78.62402344 142.24023438 C83.27127814 142.6299404 83.27127814 142.6299404 87.53442383 141.12109375 C90.09687752 136.69780375 89.08967547 130.70011016 89.06152344 125.74023438 C89.08150391 124.49113281 89.10148438 123.24203125 89.12207031 121.95507812 C89.12142578 120.76011719 89.12078125 119.56515625 89.12011719 118.33398438 C89.12197021 117.23763672 89.12382324 116.14128906 89.12573242 115.01171875 C88.87749187 112.14000708 88.87749187 112.14000708 86.76098633 110.375 C84.21579908 109.02345992 80.91057314 107.95368468 78.62402344 110.24023438 Z M94.62402344 121.24023438 C94.62402344 124.21023437 94.62402344 127.18023437 94.62402344 130.24023438 C95.28402344 130.24023438 95.94402344 130.24023438 96.62402344 130.24023438 C96.95402344 127.93023437 97.28402344 125.62023437 97.62402344 123.24023438 C96.63402344 122.58023438 95.64402344 121.92023438 94.62402344 121.24023438 Z M-90.37597656 122.24023438 C-91.57435865 124.56877901 -91.57435865 124.56877901 -92.37597656 127.24023438 C-91.38597656 128.72523438 -91.38597656 128.72523438 -90.37597656 130.24023438 C-89.71597656 129.91023437 -89.05597656 129.58023438 -88.37597656 129.24023438 C-88.65441406 128.06460938 -88.65441406 128.06460938 -88.93847656 126.86523438 C-89.37597656 124.24023438 -89.37597656 124.24023438 -88.37597656 122.24023438 C-89.03597656 122.24023438 -89.69597656 122.24023438 -90.37597656 122.24023438 Z " fill="#CD0506" transform="translate(248.3759765625,104.759765625)"/>
<path d="M0 0 C2.09123944 -0.00961489 4.18145501 -0.04065854 6.27246094 -0.07226562 C23.45220306 -0.20737053 38.54707133 3.55974912 53.18652344 12.80273438 C53.78279541 13.17865723 54.37906738 13.55458008 54.9934082 13.94189453 C60.90858546 17.82747925 60.90858546 17.82747925 62.62402344 21.24023438 C62.83729029 23.91317887 62.90947974 26.33285558 62.81152344 28.99023438 C62.7912207 30.03630859 62.7912207 30.03630859 62.77050781 31.10351562 C62.73531793 32.81608978 62.68151499 34.52826379 62.62402344 36.24023438 C63.94402344 36.57023437 65.26402344 36.90023437 66.62402344 37.24023438 C66.62402344 38.23023438 66.62402344 39.22023437 66.62402344 40.24023438 C64.31402344 39.91023438 62.00402344 39.58023438 59.62402344 39.24023438 C59.12902344 40.23023438 59.12902344 40.23023438 58.62402344 41.24023438 C57.96402344 41.24023438 57.30402344 41.24023438 56.62402344 41.24023438 C56.62402344 42.56023437 56.62402344 43.88023437 56.62402344 45.24023438 C45.49306849 44.74816472 38.00974626 42.68249287 28.31152344 37.42382812 C20.10443061 33.80936719 12.15756207 33.90522537 3.31152344 33.92773438 C2.05662109 33.91162109 0.80171875 33.89550781 -0.49121094 33.87890625 C-12.32454977 33.87273984 -21.28977805 36.16983712 -31.37597656 42.24023438 C-36.7004837 45.39510967 -40.95184904 46.71271897 -47.17675781 46.96679688 C-49.66498508 47.10949551 -49.66498508 47.10949551 -52.37597656 49.24023438 C-52.70597656 49.90023437 -53.03597656 50.56023437 -53.37597656 51.24023438 C-54.03597656 50.25023437 -54.69597656 49.26023438 -55.37597656 48.24023438 C-54.88097656 47.82773438 -54.38597656 47.41523438 -53.87597656 46.99023438 C-51.94211565 45.11821099 -51.94211565 45.11821099 -52.37597656 41.24023438 C-55.01597656 40.58023438 -57.65597656 39.92023438 -60.37597656 39.24023438 C-60.87097656 41.71523437 -60.87097656 41.71523437 -61.37597656 44.24023438 C-62.03597656 44.24023438 -62.69597656 44.24023438 -63.37597656 44.24023438 C-62.89557034 41.74212201 -62.24297444 40.01470904 -60.93847656 37.80273438 C-59.35954098 34.20276126 -59.09576276 31.73848197 -58.75097656 27.86523438 C-58.05488945 22.84998382 -57.14232417 20.23209298 -53.37597656 16.80273438 C-51.74161388 15.57115302 -50.07426597 14.38205183 -48.37597656 13.24023438 C-47.65539062 12.71042969 -46.93480469 12.180625 -46.19238281 11.63476562 C-32.47585254 2.38739946 -16.14007618 0.04464751 0 0 Z " fill="#CE0506" transform="translate(248.3759765625,104.759765625)"/>
<path d="M0 0 C2 3 2 3 2.1875 6.5625 C2.69602047 11.41097968 5.09875902 14.21037547 7.95703125 18.03515625 C16.82474248 30.90435859 21.95736227 45.35698379 22.10546875 61.01171875 C22.12029297 62.09904297 22.13511719 63.18636719 22.15039062 64.30664062 C22.1752574 66.57213514 22.18026459 68.83792945 22.16601562 71.10351562 C22.22642001 74.18047827 22.33382727 76.99445644 23 80 C25.75694896 82.71207047 25.75694896 82.71207047 29 84 C31.18702362 86.98893229 32 88.27944454 32 92 C32.928125 92.20625 33.85625 92.4125 34.8125 92.625 C38 94 38 94 39.875 96.75 C41.08156385 100.23562891 41.53199335 102.35204558 41 106 C38.02068966 111.53300493 38.02068966 111.53300493 34.9765625 112.92578125 C32.49768469 114.27299745 32.1373985 115.3486524 31.125 117.9375 C29.68499689 121.03042496 29.10908053 121.92485563 26.1875 123.9375 C22.79056866 125.06981045 19.54077524 125.52335718 16 126 C15.34 126.66 14.68 127.32 14 128 C14.33 126.35 14.66 124.7 15 123 C17.97 122.505 17.97 122.505 21 122 C18.69 121.34 16.38 120.68 14 120 C14 108.78 14 97.56 14 86 C14.66 86 15.32 86 16 86 C16 84.68 16 83.36 16 82 C16.66 81.67 17.32 81.34 18 81 C16.68 80.34 15.36 79.68 14 79 C14 78.34 14 77.68 14 77 C13.360625 76.896875 12.72125 76.79375 12.0625 76.6875 C11.381875 76.460625 10.70125 76.23375 10 76 C9.67 75.01 9.34 74.02 9 73 C8.01 72.67 7.02 72.34 6 72 C5.67 73.32 5.34 74.64 5 76 C2.33333333 76 -0.33333333 76 -3 76 C-0.64722731 73.27573689 1.62496331 72.1858237 5 71 C6.05842424 54.69242657 1.5092516 37.98418671 -8.1796875 24.79296875 C-9.99626965 22.64028774 -9.99626965 22.64028774 -13.5 22.5625 C-14.655 22.706875 -15.81 22.85125 -17 23 C-19.48560825 22.21686315 -21.65013742 21.1509531 -24 20 C-20.71645198 18.35822599 -17.34371004 19.73357352 -13.875 20.4375 C-13.12089844 20.58509766 -12.36679687 20.73269531 -11.58984375 20.88476562 C-9.72538843 21.25057648 -7.86253286 21.62452356 -6 22 C-6 20.68 -6 19.36 -6 18 C-5.34 18 -4.68 18 -4 18 C-3.67 17.01 -3.34 16.02 -3 15 C1.75 15.875 1.75 15.875 4 17 C3.67 16.01 3.34 15.02 3 14 C2.01 13.67 1.02 13.34 0 13 C0 8.71 0 4.42 0 0 Z M-2 16 C-2.66 16.66 -3.32 17.32 -4 18 C-3.7356861 21.33035512 -1.98569111 23.86547957 -0.27026367 26.6652832 C7.39572888 39.21262029 9.54573962 51.07479471 10.87426758 65.5949707 C11.03125122 67.17797974 11.03125122 67.17797974 11.19140625 68.79296875 C11.31817749 70.22419067 11.31817749 70.22419067 11.44750977 71.68432617 C11.8093192 74.36442588 11.8093192 74.36442588 15 76 C17.87047805 71.69428293 17.33369305 68.00215831 16.5 63 C16 60 16 60 16.0625 56.74609375 C15.82409385 42.45662493 8.3896764 27.34354163 0 16 C-0.66 16 -1.32 16 -2 16 Z M16 87 C15.9116033 89.3756852 15.88469695 91.72208674 15.90234375 94.09765625 C15.9037587 94.80651474 15.90517365 95.51537323 15.90663147 96.24571228 C15.91224557 98.51801712 15.92480037 100.79022475 15.9375 103.0625 C15.94251319 104.59960796 15.94707641 106.13671745 15.95117188 107.67382812 C15.96221958 111.44925642 15.97949359 115.22461171 16 119 C20.6472547 119.38970603 20.6472547 119.38970603 24.91040039 117.88085938 C27.47285408 113.45756938 26.46565203 107.45987579 26.4375 102.5 C26.45748047 101.25089844 26.47746094 100.00179687 26.49804688 98.71484375 C26.49740234 97.51988281 26.49675781 96.32492188 26.49609375 95.09375 C26.49794678 93.99740234 26.4997998 92.90105469 26.50170898 91.77148438 C26.25346844 88.8997727 26.25346844 88.8997727 24.13696289 87.13476562 C21.59177564 85.78322554 18.2865497 84.7134503 16 87 Z M32 98 C32 100.97 32 103.94 32 107 C32.66 107 33.32 107 34 107 C34.33 104.69 34.66 102.38 35 100 C34.01 99.34 33.02 98.68 32 98 Z " fill="#B30D0F" transform="translate(311,128)"/>
<path d="M0 0 C0.33 0.66 0.66 1.32 1 2 C0.06553465 4.03144641 -0.93224776 6.03533587 -2 8 C-1.34 8 -0.68 8 0 8 C0.33 6.35 0.66 4.7 1 3 C2.32 3.33 3.64 3.66 5 4 C4.32904297 4.99966797 4.32904297 4.99966797 3.64453125 6.01953125 C-8.01235189 23.79068571 -11.22751924 40.16934982 -11 61 C-10.01 61 -9.02 61 -8 61 C-7.97083496 60.39752441 -7.94166992 59.79504883 -7.91162109 59.17431641 C-6.93649673 41.01908582 -4.22039119 25.33058678 6 10 C7.24703556 7.95608706 7.24703556 7.95608706 8 6 C7.67 5.34 7.34 4.68 7 4 C8.32 4.66 9.64 5.32 11 6 C10.505 6.804375 10.01 7.60875 9.5 8.4375 C7.91580347 10.64896185 7.91580347 10.64896185 8 12 C8.99 12 9.98 12 11 12 C11.33 10.68 11.66 9.36 12 8 C12.69921875 9.68359375 12.69921875 9.68359375 13 12 C11.70703125 14.41015625 11.70703125 14.41015625 9.8125 17.0625 C1.19784435 29.9673228 -0.23319231 43.86563771 -1 59 C-0.04867187 59.13277344 0.90265625 59.26554687 1.8828125 59.40234375 C5.09422874 60.01806641 6.03812823 60.49316385 8 63 C7.67 63.66 7.34 64.32 7 65 C6.13375 64.7215625 6.13375 64.7215625 5.25 64.4375 C2.74286447 63.95000142 1.38205771 64.12657884 -1 65 C-1.99 65.99 -1.99 65.99 -3 67 C-3.33 66.34 -3.66 65.68 -4 65 C-6.475 65.495 -6.475 65.495 -9 66 C-9.33 66.99 -9.66 67.98 -10 69 C-10.99 69 -11.98 69 -13 69 C-13.01981934 68.13197754 -13.03963867 67.26395508 -13.06005859 66.36962891 C-13.13809872 63.15273733 -13.22478881 59.93622955 -13.31738281 56.71972656 C-13.35569327 55.32691428 -13.39054259 53.93400235 -13.421875 52.54101562 C-13.46747907 50.54013692 -13.52651623 48.53957854 -13.5859375 46.5390625 C-13.6173584 45.33459473 -13.6487793 44.13012695 -13.68115234 42.88916016 C-13.70915226 39.8739982 -13.70915226 39.8739982 -16 38 C-15.76356271 25.70526087 -8.87207992 8.87207992 0 0 Z " fill="#BA0A0B" transform="translate(187,141)"/>
<path d="M0 0 C0.66 0.33 1.32 0.66 2 1 C2.99 9.25 3.98 17.5 5 26 C30.08 26 55.16 26 81 26 C81 26.99 81 27.98 81 29 C71.14272854 29.1537664 61.28539057 29.30194789 51.42792797 29.4429636 C46.85091232 29.50861629 42.27394223 29.57620579 37.69702148 29.64819336 C33.28156017 29.71757064 28.86605173 29.7818972 24.45046425 29.84269524 C22.76430901 29.86680481 21.07817895 29.8927464 19.39208031 29.92053413 C17.03380649 29.95908929 14.67552787 29.99117972 12.31713867 30.02172852 C11.26733322 30.04114754 11.26733322 30.04114754 10.19631958 30.06095886 C7.16112418 30.09415687 4.90791623 29.96930541 2 29 C1.34 28.34 0.68 27.68 0 27 C-1.21693876 29.43387753 -1.31959896 31.41838846 -1.5625 34.125 C-1.64628906 35.03507812 -1.73007813 35.94515625 -1.81640625 36.8828125 C-1.90728516 37.93082031 -1.90728516 37.93082031 -2 39 C-3.485 39.495 -3.485 39.495 -5 40 C-5.19916016 38.98679687 -5.19916016 38.98679687 -5.40234375 37.953125 C-5.57894531 37.06109375 -5.75554687 36.1690625 -5.9375 35.25 C-6.11152344 34.36828125 -6.28554687 33.4865625 -6.46484375 32.578125 C-6.92368488 30.36764947 -7.43336074 28.18487932 -8 26 C-8.66 27.98 -9.32 29.96 -10 32 C-11.95216435 30.04783565 -12.84826645 28.46800047 -14 26 C-17.43230448 26.26393501 -17.43230448 26.26393501 -21 27 C-21.66 27.99 -22.32 28.98 -23 30 C-22.41070989 26.96936513 -21.74955438 23.9982175 -21 21 C-17.7 21 -14.4 21 -11 21 C-10.71125 19.55625 -10.4225 18.1125 -10.125 16.625 C-9.25 12.25 -9.25 12.25 -7 10 C-6.34 12.97 -5.68 15.94 -5 19 C-3.35659772 15.27999735 -2.53137396 11.8298827 -1.9375 7.8125 C-1.10017575 2.20035149 -1.10017575 2.20035149 0 0 Z " fill="#CD181A" transform="translate(218,214)"/>
<path d="M0 0 C0.33 0 0.66 0 1 0 C0.67 9.9 0.34 19.8 0 30 C-1.32 30.33 -2.64 30.66 -4 31 C-4 31.66 -4 32.32 -4 33 C-0.7 33 2.6 33 6 33 C6 43.89 6 54.78 6 66 C5.67 66 5.34 66 5 66 C5 55.44 5 44.88 5 34 C2.36 34.66 -0.28 35.32 -3 36 C-4.16768279 41.22690924 -4.18384888 46.22820858 -4.1875 51.5625 C-4.19974609 52.50802734 -4.21199219 53.45355469 -4.22460938 54.42773438 C-4.22654297 55.33974609 -4.22847656 56.25175781 -4.23046875 57.19140625 C-4.23663208 58.43192749 -4.23663208 58.43192749 -4.24291992 59.69750977 C-3.97146853 62.27043245 -3.44877893 63.85753242 -2 66 C1.05908413 66.81584568 1.05908413 66.81584568 4 67 C4 67.66 4 68.32 4 69 C3.34 69 2.68 69 2 69 C2 69.66 2 70.32 2 71 C3.65 71.33 5.3 71.66 7 72 C6.67 72.99 6.34 73.98 6 75 C6 74.34 6 73.68 6 73 C4.453125 73.0928125 4.453125 73.0928125 2.875 73.1875 C-2.12104966 72.94575566 -5.36764153 71.74493492 -8.8125 68.0625 C-10 66 -10 66 -10.375 63.9375 C-11.31336077 61.0285816 -13.41209082 60.47880524 -16 59 C-18.84429101 56.35186699 -18.9975247 55.02599069 -19.375 51.0625 C-19.21430764 47.30369614 -18.44818846 44.95471021 -16 42 C-15.175 41.525625 -14.35 41.05125 -13.5 40.5625 C-10.28057401 38.55035875 -9.64975174 36.36824314 -8 33 C-3.68421053 29 -3.68421053 29 -1 29 C-1.00785522 28.0553186 -1.00785522 28.0553186 -1.01586914 27.09155273 C-1.03680138 24.20687885 -1.0497115 21.32222102 -1.0625 18.4375 C-1.07087891 17.44685547 -1.07925781 16.45621094 -1.08789062 15.43554688 C-1.10536914 10.17451301 -0.92308398 5.18235335 0 0 Z M-12 47 C-13.19838209 49.32854463 -13.19838209 49.32854463 -14 52 C-13.01 53.485 -13.01 53.485 -12 55 C-11.34 54.67 -10.68 54.34 -10 54 C-10.2784375 52.824375 -10.2784375 52.824375 -10.5625 51.625 C-11 49 -11 49 -10 47 C-10.66 47 -11.32 47 -12 47 Z " fill="#B90B0C" transform="translate(170,180)"/>
<path d="M0 0 C1.65 0 3.3 0 5 0 C5.33 1.98 5.66 3.96 6 6 C7.3921875 6.2784375 7.3921875 6.2784375 8.8125 6.5625 C12 8 12 8 13.9375 11.375 C15.30385701 16.03668862 15.30385701 16.03668862 14 19 C13.34 19 12.68 19 12 19 C12 20.32 12 21.64 12 23 C11.34 23 10.68 23 10 23 C9.67 23.66 9.34 24.32 9 25 C7 25.6875 7 25.6875 5 26 C4.67 25.67 4.34 25.34 4 25 C3.34 25.66 2.68 26.32 2 27 C1.97494385 26.35973877 1.9498877 25.71947754 1.92407227 25.05981445 C1.8076454 22.14386274 1.68513133 19.2281971 1.5625 16.3125 C1.52318359 15.30509766 1.48386719 14.29769531 1.44335938 13.25976562 C1.40146484 12.28330078 1.35957031 11.30683594 1.31640625 10.30078125 C1.26141968 8.95753784 1.26141968 8.95753784 1.20532227 7.5871582 C0.99938249 4.99221912 0.56232178 2.53945316 0 0 Z M6 12 C6 14.97 6 17.94 6 21 C6.66 21 7.32 21 8 21 C8.33 18.69 8.66 16.38 9 14 C8.01 13.34 7.02 12.68 6 12 Z " fill="#CE0506" transform="translate(337,214)"/>
<path d="M0 0 C2.31 0.33 4.62 0.66 7 1 C7.66 3.31 8.32 5.62 9 8 C9.66 7.34 10.32 6.68 11 6 C12.32 6 13.64 6 15 6 C15.33 8.31 15.66 10.62 16 13 C14.68 13.99 13.36 14.98 12 16 C13.80113577 18.27014539 13.80113577 18.27014539 16.3125 18.01171875 C17.199375 17.90472656 18.08625 17.79773438 19 17.6875 C20.3303125 17.53861328 20.3303125 17.53861328 21.6875 17.38671875 C24.0180595 17.11328785 24.0180595 17.11328785 26 16 C25 19 25 19 22 21 C17.74155328 21.34342312 15.06500379 21.43989287 11.125 19.8125 C6.34870976 15.73860539 6.48753535 9.88891388 6 4 C4.02 4 2.04 4 0 4 C0 2.68 0 1.36 0 0 Z " fill="#CE0506" transform="translate(299,240)"/>
<path d="M0 0 C0.33 0 0.66 0 1 0 C1.26487071 3.09015825 1.22498372 4.63806967 -0.4375 7.3125 C-2.53609582 10.92208481 -2.6489115 13.85715572 -3 18 C-2.34 18 -1.68 18 -1 18 C-1 15.69 -1 13.38 -1 11 C-0.34 11 0.32 11 1 11 C1.33 9.68 1.66 8.36 2 7 C3.5665453 10.1330906 2.14155695 12.35098554 1.125 15.625 C-1.65506876 24.58731956 -2.18987653 33.19052174 -2.5625 42.5 C-2.60568359 43.51320312 -2.64886719 44.52640625 -2.69335938 45.5703125 C-2.79849192 48.0467679 -2.90063837 50.52330749 -3 53 C-3.33 53 -3.66 53 -4 53 C-4.01981934 52.19256348 -4.03963867 51.38512695 -4.06005859 50.55322266 C-4.15505899 46.91014125 -4.26483912 43.26765314 -4.375 39.625 C-4.42140625 37.71847656 -4.42140625 37.71847656 -4.46875 35.7734375 C-4.50742188 34.56171875 -4.54609375 33.35 -4.5859375 32.1015625 C-4.6173584 30.98088379 -4.6487793 29.86020508 -4.68115234 28.70556641 C-4.73411203 25.85289588 -4.73411203 25.85289588 -7 24 C-6.8431028 15.84134584 -3.62839167 7.25678335 0 0 Z " fill="#AD0F11" transform="translate(178,155)"/>
<path d="M0 0 C2.58926331 2.58926331 2.37398043 4.02705279 2.625 7.625 C2.69976562 8.62789062 2.77453125 9.63078125 2.8515625 10.6640625 C2.92503906 11.82035156 2.92503906 11.82035156 3 13 C2.34 13 1.68 13 1 13 C1.33 14.65 1.66 16.3 2 18 C1.34 17.34 0.68 16.68 0 16 C-0.66 17.98 -1.32 19.96 -2 22 C-3.95216435 20.04783565 -4.84826645 18.46800047 -6 16 C-9.43230448 16.26393501 -9.43230448 16.26393501 -13 17 C-13.66 17.99 -14.32 18.98 -15 20 C-14.41070989 16.96936513 -13.74955438 13.9982175 -13 11 C-9.7 11 -6.4 11 -3 11 C-2.690625 9.55625 -2.38125 8.1125 -2.0625 6.625 C-1.54516353 4.21076314 -1.10514766 2.21029533 0 0 Z " fill="#C5171B" transform="translate(210,224)"/>
<path d="M0 0 C0.33 0 0.66 0 1 0 C0.67 9.9 0.34 19.8 0 30 C-1.32 30.33 -2.64 30.66 -4 31 C-4 31.66 -4 32.32 -4 33 C-0.7 33 2.6 33 6 33 C6 43.89 6 54.78 6 66 C5.67 66 5.34 66 5 66 C5 55.44 5 44.88 5 34 C-2.82062059 35.00220202 -2.82062059 35.00220202 -5 39 C-5 37.35 -5 35.7 -5 34 C-6.32 34.66 -7.64 35.32 -9 36 C-7.61122646 32.64379729 -6.08322035 30.92701272 -3 29 C-2.34 29 -1.68 29 -1 29 C-1.00523682 28.3702124 -1.01047363 27.7404248 -1.01586914 27.09155273 C-1.03680138 24.20687885 -1.0497115 21.32222102 -1.0625 18.4375 C-1.07087891 17.44685547 -1.07925781 16.45621094 -1.08789062 15.43554688 C-1.10536914 10.17451301 -0.92308398 5.18235335 0 0 Z " fill="#A11214" transform="translate(170,180)"/>
<path d="M0 0 C0.99 0 1.98 0 3 0 C4.40835462 2.81670923 3.90000548 4.94453246 3.625 8.0625 C3.53476563 9.14660156 3.44453125 10.23070312 3.3515625 11.34765625 C3 14 3 14 2 15 C2.28674418 17.00720923 2.61866701 19.0085944 3 21 C1.5 19.75 1.5 19.75 0 18 C0 16.68 0 15.36 0 14 C-0.763125 13.7525 -1.52625 13.505 -2.3125 13.25 C-5.32166511 11.85038832 -6.4268497 10.89790845 -8 8 C-8.1875 5.25 -8.1875 5.25 -8 3 C-7.34 3 -6.68 3 -6 3 C-6 4.32 -6 5.64 -6 7 C-5.01 7 -4.02 7 -3 7 C-3 7.66 -3 8.32 -3 9 C-2.01 9 -1.02 9 0 9 C0 6.03 0 3.06 0 0 Z " fill="#CA0709" transform="translate(161,227)"/>
<path d="M0 0 C0.66 0 1.32 0 2 0 C2.84114171 1.43294498 3.67265687 2.87154405 4.5 4.3125 C4.9640625 5.11300781 5.428125 5.91351563 5.90625 6.73828125 C7 9 7 9 7 12 C6.01 11.67 5.02 11.34 4 11 C3.67 12.32 3.34 13.64 3 15 C2.57589844 14.278125 2.15179688 13.55625 1.71484375 12.8125 C-0.05155767 10.01731533 -1.78504309 7.45769191 -4 5 C-7.5 4.41666667 -7.5 4.41666667 -11 5 C-13.48560825 4.21686315 -15.65013742 3.1509531 -18 2 C-14.71645198 0.35822599 -11.34371004 1.73357352 -7.875 2.4375 C-6.74384766 2.65889648 -6.74384766 2.65889648 -5.58984375 2.88476562 C-3.72538843 3.25057648 -1.86253286 3.62452356 0 4 C0 2.68 0 1.36 0 0 Z " fill="#B30C0F" transform="translate(305,146)"/>
<path d="M0 0 C5.82071622 -0.02464638 11.64140234 -0.0428343 17.4621582 -0.05493164 C19.44393441 -0.05997267 21.42570689 -0.06680538 23.4074707 -0.07543945 C26.24952109 -0.08751515 29.09152247 -0.09323045 31.93359375 -0.09765625 C32.82525742 -0.10281754 33.71692108 -0.10797882 34.63560486 -0.11329651 C36.75740601 -0.11349177 38.8791078 -0.0621003 41 0 C41.495 0.495 41.495 0.495 42 1 C43.99958364 1.04080783 46.00045254 1.04254356 48 1 C48.66 2.65 49.32 4.3 50 6 C49.33613281 5.79503906 48.67226563 5.59007812 47.98828125 5.37890625 C47.10527344 5.10949219 46.22226562 4.84007812 45.3125 4.5625 C44.44238281 4.29566406 43.57226562 4.02882812 42.67578125 3.75390625 C35.39403251 1.70226026 28.40263928 1.81625631 20.875 1.8125 C19.6065625 1.80025391 18.338125 1.78800781 17.03125 1.77539062 C9.45983994 1.76368226 2.38696405 2.30982739 -5 4 C-5 3.34 -5 2.68 -5 2 C-3.35 2 -1.7 2 0 2 C0 1.34 0 0.68 0 0 Z " fill="#AA1210" transform="translate(231,137)"/>
<path d="M0 0 C3 1 3 1 4.1875 3.3125 C5 6 5 6 5 10 C5.66 10.33 6.32 10.66 7 11 C6.88570603 12.77155654 6.75816963 14.54226229 6.625 16.3125 C6.55539062 17.29863281 6.48578125 18.28476563 6.4140625 19.30078125 C6 22 6 22 4 25 C3.01 24.01 2.02 23.02 1 22 C1.33 21.34 1.66 20.68 2 20 C2.0716735 17.44842345 2.09308442 14.92527029 2.0625 12.375 C2.05798828 11.66859375 2.05347656 10.9621875 2.04882812 10.234375 C2.03703875 8.48954725 2.01910324 6.744763 2 5 C1.34 5 0.68 5 0 5 C0 3.35 0 1.7 0 0 Z " fill="#CE0507" transform="translate(325,166)"/>
<path d="M0 0 C0.99 0.495 0.99 0.495 2 1 C2 1.99 2 2.98 2 4 C2.94875 4.268125 3.8975 4.53625 4.875 4.8125 C8 6 8 6 10 9 C10 9.99 10 10.98 10 12 C9.34 12 8.68 12 8 12 C7.67 10.68 7.34 9.36 7 8 C5.68 8 4.36 8 3 8 C3.495 8.350625 3.99 8.70125 4.5 9.0625 C6.81346701 12.05072823 6.4568702 14.34503841 6 18 C4.125 19.9375 4.125 19.9375 2 21 C1.34 21 0.68 21 0 21 C0 14.07 0 7.14 0 0 Z M2 10 C2 12.97 2 15.94 2 19 C2.66 19 3.32 19 4 19 C4.33 16.69 4.66 14.38 5 12 C4.01 11.34 3.02 10.68 2 10 Z " fill="#AE0C0C" transform="translate(341,216)"/>
<path d="M0 0 C4.33701675 6.50552513 4.44296139 14.94267522 5.125 22.5625 C5.21136719 23.47580078 5.29773438 24.38910156 5.38671875 25.33007812 C5.59620555 27.55296584 5.80054684 29.77619349 6 32 C6.99 32.33 7.98 32.66 9 33 C9 34.65 9 36.3 9 38 C8.34 37.67 7.68 37.34 7 37 C7 36.34 7 35.68 7 35 C5.68 34.67 4.36 34.34 3 34 C3 27.4 3 20.8 3 14 C2.34 14 1.68 14 1 14 C0.67 9.38 0.34 4.76 0 0 Z " fill="#A30E0F" transform="translate(318,170)"/>
<path d="M0 0 C2.34054554 2.34054554 2.99321065 4.21475064 4.125 7.3125 C4.47820312 8.25738281 4.83140625 9.20226562 5.1953125 10.17578125 C5.98399678 12.94383335 6.15620348 15.14147629 6 18 C4.8565644 15.79480277 3.86774078 13.64455335 3 11.3125 C2.22765821 8.84572401 2.22765821 8.84572401 0 8 C0 9.65 0 11.3 0 13 C0.66 13 1.32 13 2 13 C2.33 17.95 2.66 22.9 3 28 C2.67 28 2.34 28 2 28 C-2.38297872 9.65957447 -2.38297872 9.65957447 -4 1 C-3.34 1 -2.68 1 -2 1 C-2 2.98 -2 4.96 -2 7 C-1.34 6.67 -0.68 6.34 0 6 C0 4.02 0 2.04 0 0 Z " fill="#A8100F" transform="translate(325,158)"/>
<path d="M0 0 C0 1.65 0 3.3 0 5 C-4.85188958 8.0695628 -8.21925733 9.31991263 -14 10 C-14.66 10.66 -15.32 11.32 -16 12 C-15.67 10.35 -15.34 8.7 -15 7 C-13.02 6.67 -11.04 6.34 -9 6 C-10.65 5.67 -12.3 5.34 -14 5 C-14 4.67 -14 4.34 -14 4 C-11.69 4 -9.38 4 -7 4 C-7 3.34 -7 2.68 -7 2 C-2.25 0 -2.25 0 0 0 Z " fill="#B40D0D" transform="translate(341,244)"/>
<path d="M0 0 C0.66 0.33 1.32 0.66 2 1 C2.50244141 3.40844727 2.50244141 3.40844727 2.8515625 6.56640625 C2.98046875 7.69111328 3.109375 8.81582031 3.2421875 9.97460938 C3.36851562 11.15861328 3.49484375 12.34261719 3.625 13.5625 C3.7590625 14.75037109 3.893125 15.93824219 4.03125 17.16210938 C4.36243088 20.10725367 4.68494779 23.05309385 5 26 C8.3 26 11.6 26 15 26 C15 26.33 15 26.66 15 27 C13.3603125 27.4640625 13.3603125 27.4640625 11.6875 27.9375 C9.44592006 28.58337897 7.2130649 29.2623117 5 30 C4.01 29.67 3.02 29.34 2 29 C2 28.34 2 27.68 2 27 C2.66 27 3.32 27 4 27 C3.67 26.34 3.34 25.68 3 25 C2.93049459 23.45976004 2.91547643 21.91665012 2.9375 20.375 C2.94652344 19.55773437 2.95554688 18.74046875 2.96484375 17.8984375 C2.97644531 17.27195313 2.98804688 16.64546875 3 16 C2.34 16 1.68 16 1 16 C0.93941406 15.32453125 0.87882813 14.6490625 0.81640625 13.953125 C0.73261719 13.06109375 0.64882812 12.1690625 0.5625 11.25 C0.48128906 10.36828125 0.40007812 9.4865625 0.31640625 8.578125 C0.06699735 6.04018545 0.06699735 6.04018545 -0.59765625 3.796875 C-1 2 -1 2 0 0 Z " fill="#BD2125" transform="translate(218,214)"/>
<path d="M0 0 C2.8125 0.375 2.8125 0.375 6 2 C8.48763024 7.01170927 9.43976819 12.42960295 9 18 C8.34 18.33 7.68 18.66 7 19 C6.51891725 17.58398286 6.04021859 16.16715563 5.5625 14.75 C5.29566406 13.96109375 5.02882813 13.1721875 4.75390625 12.359375 C4.08045292 10.25178012 3.50849405 8.15246027 3 6 C2.34 6 1.68 6 1 6 C0.67 4.02 0.34 2.04 0 0 Z " fill="#D0040A" transform="translate(308,156)"/>
<path d="M0 0 C0.66 0 1.32 0 2 0 C2.37068304 6.54873369 2.37068304 6.54873369 0.5625 8.75 C-0.2109375 9.36875 -0.2109375 9.36875 -1 10 C-1.33 10.99 -1.66 11.98 -2 13 C-2.66 13 -3.32 13 -4 13 C-4 15.31 -4 17.62 -4 20 C-4.66 20 -5.32 20 -6 20 C-6.28216939 14.45066868 -6.19792483 11.67389014 -3 7 C-2.31039038 5.00779443 -1.63920943 3.00894394 -1 1 C-0.67 0.67 -0.34 0.34 0 0 Z " fill="#CA0708" transform="translate(181,153)"/>
<path d="M0 0 C0.33 0 0.66 0 1 0 C1 2.97 1 5.94 1 9 C1.66 9 2.32 9 3 9 C3 13.29 3 17.58 3 22 C2.34 22.33 1.68 22.66 1 23 C-0.8180258 15.66296729 -1.53563594 8.56118646 -1 1 C-0.67 0.67 -0.34 0.34 0 0 Z " fill="#CF0507" transform="translate(318,175)"/>
<path d="M0 0 C0.66 0 1.32 0 2 0 C2.22316078 3.9053137 1.51847822 6.42711007 0 10 C-0.36871088 11.65919896 -0.71281674 13.3247643 -1 15 C-1.99 14.67 -2.98 14.34 -4 14 C-3.91231752 12.4156683 -3.80412671 10.83246433 -3.6875 9.25 C-3.60048828 7.92742187 -3.60048828 7.92742187 -3.51171875 6.578125 C-2.92970571 3.64584554 -2.04364902 2.1597081 0 0 Z " fill="#CC0607" transform="translate(187,167)"/>
<path d="M0 0 C2.69082872 0.17635452 5.32851446 0.61835921 8 1 C7.01 1.495 7.01 1.495 6 2 C6 2.66 6 3.32 6 4 C7.65 4.33 9.3 4.66 11 5 C10.67 5.99 10.34 6.98 10 8 C10 7.34 10 6.68 10 6 C8.906875 6.020625 7.81375 6.04125 6.6875 6.0625 C3 6 3 6 0 5 C-0.75 3 -0.75 3 -1 1 C-0.67 0.67 -0.34 0.34 0 0 Z " fill="#BA0B0E" transform="translate(166,247)"/>
<path d="M0 0 C6.875 0.875 6.875 0.875 8 2 C8.39943176 4.52195967 8.75079848 7.02963656 9.0625 9.5625 C9.15337891 10.27341797 9.24425781 10.98433594 9.33789062 11.71679688 C9.56239503 13.47738403 9.78168397 15.23863478 10 17 C9.34 16.67 8.68 16.34 8 16 C7.3671875 13.27734375 7.3671875 13.27734375 6.875 9.9375 C6.70742188 8.83277344 6.53984375 7.72804687 6.3671875 6.58984375 C6.24601562 5.73519531 6.12484375 4.88054687 6 4 C4.02 4 2.04 4 0 4 C0 2.68 0 1.36 0 0 Z " fill="#AE1216" transform="translate(299,240)"/>
<path d="M0 0 C0 0.99 0 1.98 0 3 C-12.87 2.505 -12.87 2.505 -26 2 C-26 1.67 -26 1.34 -26 1 C-17.31238511 0.34344611 -8.71782637 -0.16311941 0 0 Z " fill="#D4191D" transform="translate(299,240)"/>
<path d="M0 0 C0.33 0 0.66 0 1 0 C1.144375 1.0725 1.28875 2.145 1.4375 3.25 C1.83749442 5.91662949 2.27591924 8.41399729 3 11 C1.68 10.67 0.36 10.34 -1 10 C-1.33 11.32 -1.66 12.64 -2 14 C-4.66666667 14 -7.33333333 14 -10 14 C-8.0294223 11.70099268 -6.78223934 10.91725095 -3.875 9.8125 C-0.87692575 8.35793268 -0.87692575 8.35793268 -0.390625 6.03125 C-0.15114709 4.0309051 -0.06601793 2.01354687 0 0 Z " fill="#BC0C0B" transform="translate(318,190)"/>
<path d="M0 0 C0.66 0.33 1.32 0.66 2 1 C1.25 2.9375 1.25 2.9375 0 5 C-1.32 5.33 -2.64 5.66 -4 6 C-4.66 10.95 -5.32 15.9 -6 21 C-6.99 20.67 -7.98 20.34 -9 20 C-8.67 19.67 -8.34 19.34 -8 19 C-7.75530842 16.93928419 -7.52937689 14.87632849 -7.3125 12.8125 C-6.41306523 6.46765005 -5.05614256 3.84706499 0 0 Z " fill="#AB1111" transform="translate(197,120)"/>
<path d="M0 0 C0 0.99 0 1.98 0 3 C-3.6053389 5.40355927 -6.79361025 5.75085268 -11 5 C-13.25390625 3.48046875 -13.25390625 3.48046875 -15 2 C-14.00097656 1.93941406 -13.00195312 1.87882812 -11.97265625 1.81640625 C-10.68230469 1.73261719 -9.39195312 1.64882813 -8.0625 1.5625 C-6.77472656 1.48128906 -5.48695313 1.40007812 -4.16015625 1.31640625 C-1.13976043 1.35080812 -1.13976043 1.35080812 0 0 Z " fill="#A90F15" transform="translate(324,256)"/>
<path d="M0 0 C0.33 0 0.66 0 1 0 C1 1.65 1 3.3 1 5 C1.99 5 2.98 5 4 5 C4 3.68 4 2.36 4 1 C4.66 1 5.32 1 6 1 C5.01 4.3 4.02 7.6 3 11 C2.67 11 2.34 11 2 11 C2 9.35 2 7.7 2 6 C0.35 7.32 -1.3 8.64 -3 10 C-2.01 6.7 -1.02 3.4 0 0 Z " fill="#AB0F10" transform="translate(187,161)"/>
<path d="M0 0 C2 3 2 3 2.375 6.875 C2.77063175 10.92089448 4.13913952 13.0468537 7 16 C6.67 16.66 6.34 17.32 6 18 C5.3503125 17.0409375 5.3503125 17.0409375 4.6875 16.0625 C3.08760823 13.73253997 3.08760823 13.73253997 0 13 C0 8.71 0 4.42 0 0 Z " fill="#AB1112" transform="translate(311,128)"/>
<path d="M0 0 C0.66 0 1.32 0 2 0 C3.90608098 3.21182149 4.22266247 5.53882603 4.125 9.25 C4.10695312 10.14203125 4.08890625 11.0340625 4.0703125 11.953125 C4.03550781 12.96632812 4.03550781 12.96632812 4 14 C3.34 13.67 2.68 13.34 2 13 C2 11.02 2 9.04 2 7 C1.01 6.67 0.02 6.34 -1 6 C-0.34 5.67 0.32 5.34 1 5 C0.67 3.35 0.34 1.7 0 0 Z " fill="#E51616" transform="translate(211,237)"/>
<path d="M0 0 C0.66 0 1.32 0 2 0 C1.67 4.29 1.34 8.58 1 13 C0.01 13.33 -0.98 13.66 -2 14 C-3.1577506 10.52674819 -3.06866652 7.63932552 -3 4 C-2.67 4 -2.34 4 -2 4 C-1.67 5.98 -1.34 7.96 -1 10 C-0.67 6.7 -0.34 3.4 0 0 Z " fill="#B92222" transform="translate(215,240)"/>
<path d="M0 0 C0.33 0.66 0.66 1.32 1 2 C0.00419922 2.09087891 0.00419922 2.09087891 -1.01171875 2.18359375 C-7.54908081 2.79863507 -7.54908081 2.79863507 -14 4 C-14 3.34 -14 2.68 -14 2 C-9.126739 0.4087311 -5.19209404 -0.21192221 0 0 Z " fill="#DD1012" transform="translate(240,240)"/>
<path d="M0 0 C1.66611905 -0.042721 3.33382885 -0.04063832 5 0 C5.33 0.33 5.66 0.66 6 1 C7.99958364 1.04080783 10.00045254 1.04254356 12 1 C12.66 2.65 13.32 4.3 14 6 C12.41375765 5.57316761 10.8310902 5.13303842 9.25 4.6875 C8.36828125 4.44386719 7.4865625 4.20023438 6.578125 3.94921875 C3.94227495 2.97874669 2.14592674 1.78994356 0 0 Z " fill="#B70B0E" transform="translate(267,137)"/>
<path d="M0 0 C2.9375 0.75 2.9375 0.75 6 2 C6.875 4.125 6.875 4.125 7 6 C6.34 6 5.68 6 5 6 C4.34 6.66 3.68 7.32 3 8 C3 7.34 3 6.68 3 6 C2.34 6 1.68 6 1 6 C0.67 4.02 0.34 2.04 0 0 Z " fill="#C1080B" transform="translate(308,156)"/>
<path d="M0 0 C0.042721 1.66611905 0.04063832 3.33382885 0 5 C-1 6 -1 6 -4.0625 6.0625 C-5.5165625 6.0315625 -5.5165625 6.0315625 -7 6 C-3.61538462 0 -3.61538462 0 0 0 Z " fill="#D00607" transform="translate(341,244)"/>
<path d="M0 0 C1.50433594 0.01353516 1.50433594 0.01353516 3.0390625 0.02734375 C3.80992187 0.03894531 4.58078125 0.05054688 5.375 0.0625 C5.375 0.3925 5.375 0.7225 5.375 1.0625 C4.281875 1.371875 3.18875 1.68125 2.0625 2 C-0.17907994 2.64587897 -2.4119351 3.3248117 -4.625 4.0625 C-5.615 3.7325 -6.605 3.4025 -7.625 3.0625 C-7.625 2.4025 -7.625 1.7425 -7.625 1.0625 C-4.98041621 -0.25979189 -2.94738699 -0.03427194 0 0 Z " fill="#D12324" transform="translate(227.625,239.9375)"/>
<path d="M0 0 C5.66153846 2.46153846 5.66153846 2.46153846 7.375 5.1875 C7.58125 5.785625 7.7875 6.38375 8 7 C6.68 6.67 5.36 6.34 4 6 C3.67 6.99 3.34 7.98 3 9 C2.01 8.01 1.02 7.02 0 6 C0.99 6 1.98 6 3 6 C2.67 5.01 2.34 4.02 2 3 C1.34 2.67 0.68 2.34 0 2 C0 1.34 0 0.68 0 0 Z " fill="#B10E15" transform="translate(333,208)"/>
<path d="M0 0 C0.99 0 1.98 0 3 0 C3 3.63 3 7.26 3 11 C2.01 10.67 1.02 10.34 0 10 C0 8 0 8 0.5625 5 C1.27975206 2.08316693 1.27975206 2.08316693 0 0 Z " fill="#A40605" transform="translate(158,225)"/>
<path d="M0 0 C0.33 0 0.66 0 1 0 C2.33257403 10.55808656 2.33257403 10.55808656 1 15 C0.34 15 -0.32 15 -1 15 C-1.10251672 9.87416389 -1.03590199 5.05002222 0 0 Z " fill="#C30811" transform="translate(195,219)"/>
<path d="M0 0 C4.75 0.875 4.75 0.875 7 2 C7.6328125 3.84765625 7.6328125 3.84765625 8.125 6.0625 C8.29257812 6.79597656 8.46015625 7.52945313 8.6328125 8.28515625 C8.75398438 8.85105469 8.87515625 9.41695312 9 10 C6.72494996 7.83328568 4.76424908 5.60436769 3 3 C3 2.34 3 1.68 3 1 C1.02 1.99 1.02 1.99 -1 3 C-0.67 2.01 -0.34 1.02 0 0 Z " fill="#AF0D10" transform="translate(308,143)"/>
<path d="M0 0 C0.66 0.33 1.32 0.66 2 1 C1.401875 1.268125 0.80375 1.53625 0.1875 1.8125 C-2.0308127 2.85407364 -2.0308127 2.85407364 -3.375 4.5625 C-5.70402275 6.62278935 -7.97538534 6.6639317 -11 7 C-7.71103088 3.18479582 -4.67184669 1.64379791 0 0 Z " fill="#AD1011" transform="translate(213,111)"/>
<path d="M0 0 C0.66 0 1.32 0 2 0 C2.33 3.63 2.66 7.26 3 11 C2.34 11 1.68 11 1 11 C-1.125 3.375 -1.125 3.375 0 0 Z " fill="#E61516" transform="translate(219,230)"/>
<path d="M0 0 C0.33 0 0.66 0 1 0 C1.05416188 1.60379341 1.09286638 3.20811406 1.125 4.8125 C1.14820313 5.70582031 1.17140625 6.59914062 1.1953125 7.51953125 C1 10 1 10 -1 13 C-1.22245393 11.39773045 -1.42746669 9.79303233 -1.625 8.1875 C-1.74101562 7.29417969 -1.85703125 6.40085938 -1.9765625 5.48046875 C-2 3 -2 3 0 0 Z " fill="#E2161B" transform="translate(218,218)"/>
<path d="M0 0 C0.33 0.66 0.66 1.32 1 2 C1.99 2.33 2.98 2.66 4 3 C3.67 4.98 3.34 6.96 3 9 C2.34 9 1.68 9 1 9 C1 7.68 1 6.36 1 5 C0.34 5 -0.32 5 -1 5 C-0.67 3.35 -0.34 1.7 0 0 Z " fill="#BB090B" transform="translate(154,225)"/>
<path d="M0 0 C2.475 0.495 2.475 0.495 5 1 C5 1.99 5 2.98 5 4 C3.35 4 1.7 4 0 4 C0 2.68 0 1.36 0 0 Z " fill="#C30C1A" transform="translate(299,240)"/>
<path d="M0 0 C1.32 0.33 2.64 0.66 4 1 C4.33 2.98 4.66 4.96 5 7 C4.01 7.33 3.02 7.66 2 8 C2 6.02 2 4.04 2 2 C1.34 2 0.68 2 0 2 C0 1.34 0 0.68 0 0 Z " fill="#CC0707" transform="translate(321,157)"/>
<path d="M0 0 C1.65 0 3.3 0 5 0 C4.67 2.31 4.34 4.62 4 7 C1.77810176 4.77810176 1.07401108 2.91517292 0 0 Z " fill="#B21F2A" transform="translate(204,239)"/>
<path d="" fill="#47001C" transform="translate(0,0)"/>
<path d="" fill="#555555" transform="translate(0,0)"/>
</svg>
