<?xml version="1.0" encoding="UTF-8"?>
<svg version="1.1" xmlns="http://www.w3.org/2000/svg" width="500" height="500">
<path d="M0 0 C165 0 330 0 500 0 C500 165 500 330 500 500 C335 500 170 500 0 500 C0 335 0 170 0 0 Z " fill="#222121" transform="translate(0,0)"/>
<path d="M0 0 C1.39539001 0.00255295 1.39539001 0.00255295 2.81896973 0.00515747 C16.92225497 0.07789395 29.77733868 0.88079792 42.4375 7.6875 C43.13697754 8.06181152 43.83645508 8.43612305 44.55712891 8.82177734 C51.33525514 12.58423198 57.85622986 16.52495971 61.4375 23.6875 C61.4375 25.125 61.4375 26.5625 61.4375 28 C61.93813153 33.70391657 64.51089385 37.19714165 67.85205078 41.72558594 C74.42399071 50.64297009 78.32345506 59.82326904 80.4375 70.6875 C80.64246094 71.6465625 80.84742188 72.605625 81.05859375 73.59375 C82.98143369 83.88425889 82.6296739 94.26428309 82.4375 104.6875 C83.21609375 104.80480469 83.9946875 104.92210937 84.796875 105.04296875 C88.43153255 105.93012629 89.43171375 107.60718541 91.4375 110.6875 C91.6540625 111.739375 91.6540625 111.739375 91.875 112.8125 C92.73789173 115.68880575 94.90393637 116.23974936 97.4375 117.6875 C100.05179492 120.21164681 100.41219861 121.45557058 100.8125 125.125 C100.4157558 128.89406993 99.73158672 130.71368388 97.4375 133.6875 C94.4375 135.6875 94.4375 135.6875 91.4375 135.6875 C91.355 136.595 91.2725 137.5025 91.1875 138.4375 C90.3369601 142.12317292 89.31956042 143.32945057 86.4375 145.6875 C84.03204362 146.89022819 82.48753047 146.78821472 79.8125 146.75 C78.99523437 146.74097656 78.17796875 146.73195312 77.3359375 146.72265625 C76.39621094 146.70525391 76.39621094 146.70525391 75.4375 146.6875 C75.375625 147.43 75.31375 148.1725 75.25 148.9375 C74.15808689 152.63320593 72.71334369 153.72199378 69.4375 155.6875 C65.87025163 156.20772372 63.96833688 155.92878949 60.6875 154.4375 C58.4375 152.6875 58.4375 152.6875 56.4375 148.6875 C56.4375 145.0575 56.4375 141.4275 56.4375 137.6875 C28.0575 137.6875 -0.3225 137.6875 -29.5625 137.6875 C-30.5525 133.2325 -30.5525 133.2325 -31.5625 128.6875 C-31.8925 128.6875 -32.2225 128.6875 -32.5625 128.6875 C-33.5525 133.9675 -34.5425 139.2475 -35.5625 144.6875 C-36.2225 144.6875 -36.8825 144.6875 -37.5625 144.6875 C-38.5525 140.0675 -39.5425 135.4475 -40.5625 130.6875 C-41.2225 133.3275 -41.8825 135.9675 -42.5625 138.6875 C-44.5625 135.6875 -44.5625 135.6875 -44.5625 132.6875 C-49.0175 133.6775 -49.0175 133.6775 -53.5625 134.6875 C-53.59988281 135.56792969 -53.63726562 136.44835937 -53.67578125 137.35546875 C-53.74152344 138.51691406 -53.80726563 139.67835938 -53.875 140.875 C-53.96201172 142.59783203 -53.96201172 142.59783203 -54.05078125 144.35546875 C-54.75282261 148.92677624 -56.27468707 151.61432256 -59.8125 154.5625 C-63.52619801 156.08174009 -65.71904948 155.73571378 -69.5625 154.6875 C-72.43192113 152.42216753 -73.40157612 151.17027163 -74.5625 147.6875 C-75.15417969 147.66171875 -75.74585938 147.6359375 -76.35546875 147.609375 C-81.5984263 147.23304526 -84.80199994 146.67590916 -88.5625 142.6875 C-90.27055274 140.00341712 -90.5625 138.92580467 -90.5625 135.6875 C-91.7071875 135.31625 -91.7071875 135.31625 -92.875 134.9375 C-96.00713315 133.48069388 -97.04967792 132.79276637 -98.5625 129.6875 C-99.09219817 126.57916131 -99.17042001 123.78789204 -98.5625 120.6875 C-96.38090855 117.93180553 -94.69072506 116.25161253 -91.5625 114.6875 C-90.9111663 113.41896362 -90.31374721 112.12231267 -89.75 110.8125 C-87.98216253 107.11791832 -86.44499066 105.32223291 -82.5625 103.6875 C-81.9025 103.6875 -81.2425 103.6875 -80.5625 103.6875 C-80.58344727 102.98890869 -80.60439453 102.29031738 -80.62597656 101.57055664 C-81.28249989 76.27155471 -78.0417102 56.30859317 -62.5625 35.6875 C-62.2325 35.3575 -61.9025 35.0275 -61.5625 34.6875 C-61.43026481 33.12712479 -61.33181471 31.56382969 -61.25 30 C-60.65417588 23.74829324 -58.22131773 20.11140188 -53.75 15.8125 C-50.25340134 12.97338143 -46.43153904 10.73842705 -42.5 8.5625 C-41.92983154 8.23781738 -41.35966309 7.91313477 -40.7722168 7.57861328 C-27.68955393 0.61933645 -14.47075988 -0.08739156 0 0 Z M-28 36.625 C-28.96808594 37.12902344 -29.93617188 37.63304687 -30.93359375 38.15234375 C-33.54178866 39.57932916 -33.54178866 39.57932916 -35.5390625 41.328125 C-38.89335411 43.58158732 -42.6426162 43.42520925 -46.58984375 43.76953125 C-51.81012106 45.38157484 -54.11652616 49.75614143 -56.6953125 54.28125 C-63.8170751 67.88666806 -66.1399377 80.41748092 -65.5625 95.6875 C-64.469375 95.914375 -63.37625 96.14125 -62.25 96.375 C-58.5625 97.6875 -58.5625 97.6875 -56.86401367 99.85620117 C-55.3319913 103.18894615 -55.13435429 105.64028211 -55.05078125 109.30078125 C-55.01533203 110.54794922 -54.97988281 111.79511719 -54.94335938 113.08007812 C-54.92080078 114.37365234 -54.89824219 115.66722656 -54.875 117 C-54.82375977 118.96936523 -54.82375977 118.96936523 -54.77148438 120.97851562 C-54.68910728 124.21475851 -54.61991984 127.45073385 -54.5625 130.6875 C-50.8360915 131.73452186 -47.43236958 131.76192057 -43.5625 131.6875 C-43.0675 132.6775 -43.0675 132.6775 -42.5625 133.6875 C-41.5725 127.7475 -41.5725 127.7475 -40.5625 121.6875 C-39.5725 126.3075 -38.5825 130.9275 -37.5625 135.6875 C-36.9025 135.6875 -36.2425 135.6875 -35.5625 135.6875 C-34.5725 128.4275 -33.5825 121.1675 -32.5625 113.6875 C-27.29203723 118.95796277 -29.61659255 128.30885213 -28.5625 135.6875 C-0.5125 135.6875 27.5375 135.6875 56.4375 135.6875 C56.7675 124.1375 57.0975 112.5875 57.4375 100.6875 C63.4375 95.6875 63.4375 95.6875 66.4375 94.6875 C67.11494371 76.77287742 63.53695129 61.70142088 53.44921875 46.73828125 C51.667921 44.53431567 51.667921 44.53431567 49.421875 44.296875 C48.68453125 44.34328125 47.9471875 44.3896875 47.1875 44.4375 C41.02555781 44.16444495 36.6737678 41.32303897 31.58691406 38.10058594 C22.20356783 32.32219482 12.79523857 31.20847027 1.9375 31.375 C0.88691406 31.37177734 -0.16367188 31.36855469 -1.24609375 31.36523438 C-10.6198241 31.42896184 -19.60620175 32.14906687 -28 36.625 Z " fill="#CD0505" transform="translate(250.5625,105.3125)"/>
<path d="M0 0 C1.65 1.65 3.3 3.3 5 5 C4.48050781 5.79921875 3.96101563 6.5984375 3.42578125 7.421875 C-4.44523568 19.81763549 -9.60853958 31.46436998 -10.1953125 46.359375 C-10.2272168 47.11645752 -10.25912109 47.87354004 -10.29199219 48.65356445 C-10.34615007 50.14370256 -10.38153384 51.63467596 -10.39550781 53.12573242 C-10.55004403 58.05993541 -11.61466981 60.45128515 -15 64 C-15.495 64.99 -15.495 64.99 -16 66 C-16.66 66 -17.32 66 -18 66 C-18.79524815 41.77857662 -16.32844974 19.18592844 0 0 Z " fill="#2C2020" transform="translate(192,143)"/>
<path d="M0 0 C0.66 0 1.32 0 2 0 C17.78942418 20.03882066 19.54114848 41.39578261 19 66 C18.34 66 17.68 66 17 66 C16.525625 65.030625 16.05125 64.06125 15.5625 63.0625 C14.29806053 60.19522563 14.29806053 60.19522563 13 59 C12.90427015 57.22793404 12.81537961 55.45522743 12.76147461 53.68139648 C12.20071595 36.67171728 7.9478025 19.50570028 -3 6 C-2 4 -1 2 0 0 Z " fill="#272121" transform="translate(309,143)"/>
<path d="M0 0 C0 11.22 0 22.44 0 34 C-7 34 -7 34 -9.40649414 32.38696289 C-11.4415487 29.33859023 -11.5022939 27.45940273 -11.49609375 23.80859375 C-11.49673828 22.61685547 -11.49738281 21.42511719 -11.49804688 20.19726562 C-11.47806641 18.95654297 -11.45808594 17.71582031 -11.4375 16.4375 C-11.44458984 15.19291016 -11.45167969 13.94832031 -11.45898438 12.66601562 C-11.39604943 3.72441177 -11.39604943 3.72441177 -9.97290039 1.12133789 C-8 0 -8 0 0 0 Z " fill="#232121" transform="translate(176,214)"/>
<path d="M0 0 C8 0 8 0 9.97509766 1.11914062 C11.45313027 3.83156637 11.388931 6.01364458 11.3984375 9.09375 C11.40230469 10.28871094 11.40617187 11.48367187 11.41015625 12.71484375 C11.39855469 13.96394531 11.38695312 15.21304688 11.375 16.5 C11.38660156 17.74910156 11.39820313 18.99820313 11.41015625 20.28515625 C11.40628906 21.48011719 11.40242188 22.67507812 11.3984375 23.90625 C11.39505371 25.00259766 11.39166992 26.09894531 11.38818359 27.22851562 C11 30 11 30 9.97509766 31.88085938 C8 33 8 33 0 33 C0 22.11 0 11.22 0 0 Z " fill="#252121" transform="translate(327,214)"/>
<path d="M0 0 C0.33 0 0.66 0 1 0 C1.50682442 3.01982884 2.00563335 6.04062817 2.5 9.0625 C2.64308594 9.91005859 2.78617188 10.75761719 2.93359375 11.63085938 C3.06894531 12.46552734 3.20429688 13.30019531 3.34375 14.16015625 C3.46943359 14.91949463 3.59511719 15.67883301 3.72460938 16.46118164 C4.06763905 19.62356245 4 22.81906904 4 26 C32.05 26 60.1 26 89 26 C89 26.66 89 27.32 89 28 C60.62 28 32.24 28 3 28 C2.34 25.03 1.68 22.06 1 19 C0.67 19 0.34 19 0 19 C-0.99 24.28 -1.98 29.56 -3 35 C-3.66 35 -4.32 35 -5 35 C-5.99 30.38 -6.98 25.76 -8 21 C-8.66 23.64 -9.32 26.28 -10 29 C-12 26 -12 26 -12 23 C-15.96 23.495 -15.96 23.495 -20 24 C-19.67 23.34 -19.34 22.68 -19 22 C-16.36 22 -13.72 22 -11 22 C-10.01 18.04 -9.02 14.08 -8 10 C-7.67 10 -7.34 10 -7 10 C-6.66104344 11.72807318 -6.32908475 13.45751974 -6 15.1875 C-5.814375 16.15042969 -5.62875 17.11335938 -5.4375 18.10546875 C-5.03122388 20.7934206 -4.92066428 23.28771019 -5 26 C-4.34 26 -3.68 26 -3 26 C-2.95101562 25.12859375 -2.90203125 24.2571875 -2.8515625 23.359375 C-2.35577507 15.46096843 -1.46701011 7.77657787 0 0 Z " fill="#BC171C" transform="translate(218,215)"/>
<path d="M0 0 C0.33 0 0.66 0 1 0 C1.53383702 3.0190444 2.05234494 6.03944144 2.5625 9.0625 C2.71396484 9.91005859 2.86542969 10.75761719 3.02148438 11.63085938 C3.87112727 16.74847588 4.04291742 20.90973418 3 26 C2.67 26 2.34 26 2 26 C1.67 23.69 1.34 21.38 1 19 C0.67 19 0.34 19 0 19 C-0.99 24.28 -1.98 29.56 -3 35 C-3.66 35 -4.32 35 -5 35 C-5.99 30.38 -6.98 25.76 -8 21 C-8.66 23.64 -9.32 26.28 -10 29 C-12 26 -12 26 -12 23 C-15.96 23.495 -15.96 23.495 -20 24 C-19.67 23.34 -19.34 22.68 -19 22 C-16.36 22 -13.72 22 -11 22 C-10.01 18.04 -9.02 14.08 -8 10 C-7.67 10 -7.34 10 -7 10 C-6.66104344 11.72807318 -6.32908475 13.45751974 -6 15.1875 C-5.814375 16.15042969 -5.62875 17.11335938 -5.4375 18.10546875 C-5.03122388 20.7934206 -4.92066428 23.28771019 -5 26 C-4.34 26 -3.68 26 -3 26 C-2.95101562 25.12859375 -2.90203125 24.2571875 -2.8515625 23.359375 C-2.35577507 15.46096843 -1.46701011 7.77657787 0 0 Z " fill="#D6161B" transform="translate(218,215)"/>
<path d="M0 0 C0.33 0 0.66 0 1 0 C1.53383702 3.0190444 2.05234494 6.03944144 2.5625 9.0625 C2.71396484 9.91005859 2.86542969 10.75761719 3.02148438 11.63085938 C3.87112727 16.74847588 4.04291742 20.90973418 3 26 C2.67 26 2.34 26 2 26 C1.67 23.69 1.34 21.38 1 19 C0.67 19 0.34 19 0 19 C-0.33 20.98 -0.66 22.96 -1 25 C-3.13496279 21.79755582 -3.23039873 21.45811031 -2.79296875 17.91015625 C-2.70080078 17.12576172 -2.60863281 16.34136719 -2.51367188 15.53320312 C-2.40603516 14.71787109 -2.29839844 13.90253906 -2.1875 13.0625 C-2.09146484 12.25103516 -1.99542969 11.43957031 -1.89648438 10.60351562 C-1.45520094 6.99328403 -0.93679453 3.51904167 0 0 Z " fill="#C6171C" transform="translate(218,215)"/>
<path d="M0 0 C0.33 0 0.66 0 1 0 C1.01458252 0.80743652 1.02916504 1.61487305 1.04418945 2.44677734 C1.11846086 6.0900127 1.21519025 9.73231033 1.3125 13.375 C1.33505859 14.64601562 1.35761719 15.91703125 1.38085938 17.2265625 C1.41630859 18.43828125 1.45175781 19.65 1.48828125 20.8984375 C1.51446533 22.01911621 1.54064941 23.13979492 1.56762695 24.29443359 C1.71031006 25.18727051 1.85299316 26.08010742 2 27 C2.99 27.66 3.98 28.32 5 29 C4.67 29.99 4.34 30.98 4 32 C3.34 32 2.68 32 2 32 C1.67 36.29 1.34 40.58 1 45 C0.67 45 0.34 45 0 45 C0 30.15 0 15.3 0 0 Z " fill="#AA0E0F" transform="translate(195,208)"/>
<path d="M0 0 C1.98 0.99 1.98 0.99 4 2 C4.9375 4.9375 4.9375 4.9375 5 8 C3.6875 9.875 3.6875 9.875 2 11 C1.34 11 0.68 11 0 11 C0 7.37 0 3.74 0 0 Z " fill="#381E1E" transform="translate(342,225)"/>
<path d="M0 0 C0 3.63 0 7.26 0 11 C-0.99 10.67 -1.98 10.34 -3 10 C-3.6875 6.6875 -3.6875 6.6875 -4 3 C-1.87096774 0 -1.87096774 0 0 0 Z " fill="#282020" transform="translate(160,225)"/>
</svg>
